<svg height="1534" width="720" xmlns="http://www.w3.org/2000/svg">
<rect height="1534" fill="#555" width="720"></rect>
<text fill="#7f7" font-family="Courier New" font-size="12" xml:space="preserve">
<tspan x="10" y="26">31 megabytes installed</tspan>
<tspan x="10" y="42"></tspan>
<tspan x="10" y="58">node_modules</tspan>
<tspan x="10" y="74">└─┬ wavi@2.1.3 </tspan>
<tspan x="10" y="90">  ├── acorn@4.0.11 </tspan>
<tspan x="10" y="106">  ├─┬ acorn-umd@0.4.0 </tspan>
<tspan x="10" y="122">  │ ├── acorn@1.2.2 </tspan>
<tspan x="10" y="138">  │ ├─┬ es-lookup-scope@1.0.1 </tspan>
<tspan x="10" y="154">  │ │ ├── es6-collections@0.5.6 </tspan>
<tspan x="10" y="170">  │ │ ├─┬ escope@1.0.3 </tspan>
<tspan x="10" y="186">  │ │ │ └── estraverse@2.0.0 </tspan>
<tspan x="10" y="202">  │ │ └─┬ lodash.findlast@3.2.1 </tspan>
<tspan x="10" y="218">  │ │   ├─┬ lodash._basecallback@3.3.1 </tspan>
<tspan x="10" y="234">  │ │   │ ├─┬ lodash._baseisequal@3.0.7 </tspan>
<tspan x="10" y="250">  │ │   │ │ └── lodash.istypedarray@3.0.6 </tspan>
<tspan x="10" y="266">  │ │   │ ├── lodash._bindcallback@3.0.1 </tspan>
<tspan x="10" y="282">  │ │   │ └── lodash.pairs@3.0.1 </tspan>
<tspan x="10" y="298">  │ │   ├─┬ lodash._baseeachright@3.0.3 </tspan>
<tspan x="10" y="314">  │ │   │ └── lodash._baseforright@3.0.2 </tspan>
<tspan x="10" y="330">  │ │   ├── lodash._basefind@3.0.0 </tspan>
<tspan x="10" y="346">  │ │   ├── lodash._basefindindex@3.6.0 </tspan>
<tspan x="10" y="362">  │ │   ├── lodash.isarray@3.0.4 </tspan>
<tspan x="10" y="378">  │ │   └─┬ lodash.keys@3.1.2 </tspan>
<tspan x="10" y="394">  │ │     ├── lodash._getnative@3.9.1 </tspan>
<tspan x="10" y="410">  │ │     └── lodash.isarguments@3.1.0 </tspan>
<tspan x="10" y="426">  │ └── lodash@3.10.1 </tspan>
<tspan x="10" y="442">  ├─┬ async@2.3.0 </tspan>
<tspan x="10" y="458">  │ └── lodash@4.17.4 </tspan>
<tspan x="10" y="474">  ├─┬ babel-polyfill@6.23.0 </tspan>
<tspan x="10" y="490">  │ ├── core-js@2.4.1 </tspan>
<tspan x="10" y="506">  │ └── regenerator-runtime@0.10.4 </tspan>
<tspan x="10" y="522">  ├── babel-runtime@6.23.0 </tspan>
<tspan x="10" y="538">  ├─┬ cheerio@0.22.0 </tspan>
<tspan x="10" y="554">  │ ├─┬ css-select@1.2.0 </tspan>
<tspan x="10" y="570">  │ │ ├── boolbase@1.0.0 </tspan>
<tspan x="10" y="586">  │ │ ├── css-what@2.1.0 </tspan>
<tspan x="10" y="602">  │ │ ├── domutils@1.5.1 </tspan>
<tspan x="10" y="618">  │ │ └── nth-check@1.0.1 </tspan>
<tspan x="10" y="634">  │ ├─┬ dom-serializer@0.1.0 </tspan>
<tspan x="10" y="650">  │ │ └── domelementtype@1.1.3 </tspan>
<tspan x="10" y="666">  │ ├── entities@1.1.1 </tspan>
<tspan x="10" y="682">  │ ├─┬ htmlparser2@3.9.2 </tspan>
<tspan x="10" y="698">  │ │ ├── domelementtype@1.3.0 </tspan>
<tspan x="10" y="714">  │ │ ├── domhandler@2.3.0 </tspan>
<tspan x="10" y="730">  │ │ └─┬ readable-stream@2.2.9 </tspan>
<tspan x="10" y="746">  │ │   ├── buffer-shims@1.0.0 </tspan>
<tspan x="10" y="762">  │ │   ├── core-util-is@1.0.2 </tspan>
<tspan x="10" y="778">  │ │   ├── isarray@1.0.0 </tspan>
<tspan x="10" y="794">  │ │   ├── process-nextick-args@1.0.7 </tspan>
<tspan x="10" y="810">  │ │   ├── string_decoder@1.0.0 </tspan>
<tspan x="10" y="826">  │ │   └── util-deprecate@1.0.2 </tspan>
<tspan x="10" y="842">  │ ├── lodash.assignin@4.2.0 </tspan>
<tspan x="10" y="858">  │ ├── lodash.bind@4.2.1 </tspan>
<tspan x="10" y="874">  │ ├── lodash.defaults@4.2.0 </tspan>
<tspan x="10" y="890">  │ ├── lodash.filter@4.6.0 </tspan>
<tspan x="10" y="906">  │ ├── lodash.flatten@4.4.0 </tspan>
<tspan x="10" y="922">  │ ├── lodash.foreach@4.5.0 </tspan>
<tspan x="10" y="938">  │ ├── lodash.map@4.6.0 </tspan>
<tspan x="10" y="954">  │ ├── lodash.merge@4.6.0 </tspan>
<tspan x="10" y="970">  │ ├── lodash.pick@4.4.0 </tspan>
<tspan x="10" y="986">  │ ├── lodash.reduce@4.6.0 </tspan>
<tspan x="10" y="1002">  │ ├── lodash.reject@4.6.0 </tspan>
<tspan x="10" y="1018">  │ └── lodash.some@4.6.0 </tspan>
<tspan x="10" y="1034">  ├── co@4.6.0 </tspan>
<tspan x="10" y="1050">  ├─┬ css@2.2.1 </tspan>
<tspan x="10" y="1066">  │ ├── inherits@2.0.3 </tspan>
<tspan x="10" y="1082">  │ ├─┬ source-map@0.1.43 </tspan>
<tspan x="10" y="1098">  │ │ └── amdefine@1.0.1 </tspan>
<tspan x="10" y="1114">  │ ├─┬ source-map-resolve@0.3.1 </tspan>
<tspan x="10" y="1130">  │ │ ├── atob@1.1.3 </tspan>
<tspan x="10" y="1146">  │ │ ├── resolve-url@0.2.1 </tspan>
<tspan x="10" y="1162">  │ │ └── source-map-url@0.3.0 </tspan>
<tspan x="10" y="1178">  │ └── urix@0.1.0 </tspan>
<tspan x="10" y="1194">  ├─┬ escope@3.6.0 </tspan>
<tspan x="10" y="1210">  │ ├─┬ es6-map@0.1.5 </tspan>
<tspan x="10" y="1226">  │ │ ├── d@1.0.0 </tspan>
<tspan x="10" y="1242">  │ │ ├── es5-ext@0.10.15 </tspan>
<tspan x="10" y="1258">  │ │ ├── es6-iterator@2.0.1 </tspan>
<tspan x="10" y="1274">  │ │ ├── es6-set@0.1.5 </tspan>
<tspan x="10" y="1290">  │ │ ├── es6-symbol@3.1.1 </tspan>
<tspan x="10" y="1306">  │ │ └── event-emitter@0.3.5 </tspan>
<tspan x="10" y="1322">  │ └── es6-weak-map@2.0.2 </tspan>
<tspan x="10" y="1338">  ├─┬ esrecurse@4.1.0 </tspan>
<tspan x="10" y="1354">  │ ├── estraverse@4.1.1 </tspan>
<tspan x="10" y="1370">  │ └── object-assign@4.1.1 </tspan>
<tspan x="10" y="1386">  ├── estraverse@4.2.0 </tspan>
<tspan x="10" y="1402">  ├── fs@0.0.2 </tspan>
<tspan x="10" y="1418">  ├─┬ mkdirp@0.5.1 </tspan>
<tspan x="10" y="1434">  │ └── minimist@0.0.8 </tspan>
<tspan x="10" y="1450">  ├─┬ path@0.12.7 </tspan>
<tspan x="10" y="1466">  │ ├── process@0.11.10 </tspan>
<tspan x="10" y="1482">  │ └─┬ util@0.10.3 </tspan>
<tspan x="10" y="1498">  │   └── inherits@2.0.1 </tspan>
<tspan x="10" y="1514">  └── underscore@1.8.3</tspan>
</text>
</svg>
